<svg xmlns="http://www.w3.org/2000/svg" version="1.1" xmlns:xlink="http://www.w3.org/1999/xlink" width="100%" height="100%" id="svgWorkerArea" viewBox="-25 -25 625 625" xmlns:idraw="https://idraw.muisca.co" style="background: white;"><defs id="defsdoc"><pattern id="patternBool" x="0" y="0" width="10" height="10" patternUnits="userSpaceOnUse" patternTransform="rotate(35)"><circle cx="5" cy="5" r="4" style="stroke: none;fill: #ff000070;"></circle></pattern></defs><g id="fileImp-494487206" class="cosito"><path id="pathImp-735125724" fill="#0078D4" class="grouped" d="M62.5 411.5164C94.8916 351.8036 153.9403 324.2637 209.0279 336.3813 227.3097 340.3423 244.4977 349.6005 262.1311 356.4288 279.7566 363.2571 297.1634 372.0699 315.453 376.2575 328.4456 379.3435 342.9929 377.1403 356.6496 375.3747 369.2124 373.8356 370.7516 368.9917 364.3608 357.9757 350.9228 334.8344 337.2661 311.7008 323.8205 288.5674 323.8205 288.5673 261.6857 182.1422 261.6857 182.1422 254.8574 170.4622 252.873 170.6887 246.0446 182.361 246.0446 182.361 196.465 266.9729 196.465 266.973 194.9259 269.6136 193.8243 272.6997 192.7149 274.9029 209.6842 282.4031 225.9971 288.5673 241.6383 296.4973 250.6698 301.1224 258.5997 307.9586 266.5374 314.5681 270.0532 317.4276 271.6001 322.498 274.2486 326.467 269.6157 326.0216 264.7718 326.4669 260.1466 325.3654 242.0758 321.1777 224.2315 314.5681 205.9419 312.5837 173.3315 309.0601 141.8227 317.8729 111.1968 328.2248 107.892 329.3264 103.9309 328.4435 100.1808 328.4436 101.0636 325.1388 101.0636 321.3964 102.6028 318.5292 148.651 238.3314 195.59 158.1337 242.5211 78.1469 249.7869 65.584 257.7247 66.0293 264.9905 78.5844 320.0703 172.6732 374.9392 266.5354 430.0268 360.6165 442.1365 381.5546 440.1599 394.3284 419.4484 406.8835 372.5172 435.7515 323.8205 439.4938 274.0221 414.1571 261.9123 407.985 249.3494 402.9224 237.224 396.5316 198.4494 376.0388 158.3466 376.0388 117.8063 389.7032 102.8215 394.5471 88.5086 401.3755 73.9613 407.11 71.094 408.2038 68.2345 409.3132 62.5 411.5164 62.5 411.5164 62.5 411.5164 62.5 411.5164"></path></g></svg>